<svg width="276" height="225" viewBox="0 0 276 225" fill="none" xmlns="http://www.w3.org/2000/svg">
<path d="M142.573 103.002C134.491 117.002 135.205 131.502 136.573 137.002C96.7746 127.891 104.296 167.252 100.569 194.127C100.258 196.372 99.4586 198.545 98.2168 200.44C66.857 248.306 -12.089 218.99 1.57328 168.002C12.7201 126.402 53.5511 123.669 72.5733 127.502C63.3734 136.702 63.5001 152.312 64.5 159.312C35.0001 145.813 28.5001 185.392 46.5 190.215C75.4268 197.966 72.5733 166.998 72.5733 150C72.5733 112 111.5 104 142.573 103.002ZM143 126.5C145.333 108 162 72.1 210 76.5C231 77.1667 273.4 89.6 275 134C275.5 160.405 258.8 208.471 188 189.5C193.6 183.9 195 165.833 195 157.5C220.6 164.359 230.333 152.358 232 145.5C234.333 138.221 234.4 122.43 216 117.5C197.6 112.57 190 127.779 188.5 136L188 163.5C182 217.5 124.614 216 102.5 206.5C110.5 198.5 110.833 179.833 110 171.5C118.633 175.167 137.32 177.2 143 156V126.5ZM63 74C76.8072 74 88 85.1929 88 99C88 112.807 76.8072 124 63 124C49.1929 124 38 112.807 38 99C38 85.1929 49.1929 74 63 74ZM128 40C144.569 40 158 53.4315 158 70C158 86.5685 144.569 100 128 100C111.432 100 98 86.5685 98 70C98 53.4315 111.432 40 128 40ZM203 0C222.33 0 238 15.67 238 35C238 54.33 222.33 70 203 70C183.67 70 168 54.33 168 35C168 15.67 183.67 1.85558e-05 203 0Z" fill="url(#paint0_linear_14_12)"/>
<defs>
<linearGradient id="paint0_linear_14_12" x1="61" y1="127.5" x2="188.177" y2="163.928" gradientUnits="userSpaceOnUse">
<stop offset="0.0425001" stop-color="#30B05C"/>
<stop offset="0.314918" stop-color="#128CD9"/>
<stop offset="0.571303" stop-color="#1243CD"/>
</linearGradient>
</defs>
</svg>
