<svg width="743" height="225" viewBox="0 0 743 225" fill="none" xmlns="http://www.w3.org/2000/svg">
<path d="M321.091 159V65.9091H382.727V82.1364H340.773V104.318H378.636V120.545H340.773V159H321.091ZM395.602 159V89.1818H414.966V159H395.602ZM405.33 80.1818C402.451 80.1818 399.981 79.2273 397.92 77.3182C395.89 75.3788 394.875 73.0606 394.875 70.3636C394.875 67.697 395.89 65.4091 397.92 63.5C399.981 61.5606 402.451 60.5909 405.33 60.5909C408.208 60.5909 410.663 61.5606 412.693 63.5C414.754 65.4091 415.784 67.697 415.784 70.3636C415.784 73.0606 414.754 75.3788 412.693 77.3182C410.663 79.2273 408.208 80.1818 405.33 80.1818ZM449.841 65.9091V159H430.477V65.9091H449.841ZM485.261 160.318C480.807 160.318 476.837 159.545 473.352 158C469.867 156.424 467.11 154.106 465.08 151.045C463.08 147.955 462.08 144.106 462.08 139.5C462.08 135.621 462.792 132.364 464.216 129.727C465.64 127.091 467.58 124.97 470.034 123.364C472.489 121.758 475.277 120.545 478.398 119.727C481.549 118.909 484.852 118.333 488.307 118C492.367 117.576 495.64 117.182 498.125 116.818C500.61 116.424 502.413 115.848 503.534 115.091C504.655 114.333 505.216 113.212 505.216 111.727V111.455C505.216 108.576 504.307 106.348 502.489 104.773C500.701 103.197 498.155 102.409 494.852 102.409C491.367 102.409 488.595 103.182 486.534 104.727C484.473 106.242 483.11 108.152 482.443 110.455L464.534 109C465.443 104.758 467.231 101.091 469.898 98C472.564 94.8788 476.004 92.4848 480.216 90.8182C484.458 89.1212 489.367 88.2727 494.943 88.2727C498.822 88.2727 502.534 88.7273 506.08 89.6364C509.655 90.5455 512.822 91.9545 515.58 93.8636C518.367 95.7727 520.564 98.2273 522.17 101.227C523.777 104.197 524.58 107.758 524.58 111.909V159H506.216V149.318H505.67C504.549 151.5 503.049 153.424 501.17 155.091C499.292 156.727 497.034 158.015 494.398 158.955C491.761 159.864 488.716 160.318 485.261 160.318ZM490.807 146.955C493.655 146.955 496.17 146.394 498.352 145.273C500.534 144.121 502.246 142.576 503.489 140.636C504.731 138.697 505.352 136.5 505.352 134.045V126.636C504.746 127.03 503.913 127.394 502.852 127.727C501.822 128.03 500.655 128.318 499.352 128.591C498.049 128.833 496.746 129.061 495.443 129.273C494.14 129.455 492.958 129.621 491.898 129.773C489.625 130.106 487.64 130.636 485.943 131.364C484.246 132.091 482.928 133.076 481.989 134.318C481.049 135.53 480.58 137.045 480.58 138.864C480.58 141.5 481.534 143.515 483.443 144.909C485.383 146.273 487.837 146.955 490.807 146.955Z" fill="white"/>
<path d="M539.966 159V65.9091H576.693C583.754 65.9091 589.769 67.2576 594.739 69.9545C599.708 72.6212 603.496 76.3333 606.102 81.0909C608.739 85.8182 610.057 91.2727 610.057 97.4545C610.057 103.636 608.723 109.091 606.057 113.818C603.39 118.545 599.527 122.227 594.466 124.864C589.436 127.5 583.345 128.818 576.193 128.818H552.784V113.045H573.011C576.799 113.045 579.92 112.394 582.375 111.091C584.86 109.758 586.708 107.924 587.92 105.591C589.163 103.227 589.784 100.515 589.784 97.4545C589.784 94.3636 589.163 91.6667 587.92 89.3636C586.708 87.0303 584.86 85.2273 582.375 83.9545C579.89 82.6515 576.739 82 572.92 82H559.648V159H539.966ZM622.477 159V89.1818H641.25V101.364H641.977C643.25 97.0303 645.386 93.7576 648.386 91.5455C651.386 89.303 654.841 88.1818 658.75 88.1818C659.72 88.1818 660.765 88.2424 661.886 88.3636C663.008 88.4848 663.992 88.6515 664.841 88.8636V106.045C663.932 105.773 662.674 105.53 661.068 105.318C659.462 105.106 657.992 105 656.659 105C653.811 105 651.265 105.621 649.023 106.864C646.811 108.076 645.053 109.773 643.75 111.955C642.477 114.136 641.841 116.652 641.841 119.5V159H622.477ZM703.148 160.364C696.087 160.364 689.981 158.864 684.83 155.864C679.708 152.833 675.754 148.621 672.966 143.227C670.178 137.803 668.784 131.515 668.784 124.364C668.784 117.152 670.178 110.848 672.966 105.455C675.754 100.03 679.708 95.8182 684.83 92.8182C689.981 89.7879 696.087 88.2727 703.148 88.2727C710.208 88.2727 716.299 89.7879 721.42 92.8182C726.572 95.8182 730.542 100.03 733.33 105.455C736.117 110.848 737.511 117.152 737.511 124.364C737.511 131.515 736.117 137.803 733.33 143.227C730.542 148.621 726.572 152.833 721.42 155.864C716.299 158.864 710.208 160.364 703.148 160.364ZM703.239 145.364C706.451 145.364 709.133 144.455 711.284 142.636C713.436 140.788 715.057 138.273 716.148 135.091C717.269 131.909 717.83 128.288 717.83 124.227C717.83 120.167 717.269 116.545 716.148 113.364C715.057 110.182 713.436 107.667 711.284 105.818C709.133 103.97 706.451 103.045 703.239 103.045C699.996 103.045 697.269 103.97 695.057 105.818C692.875 107.667 691.223 110.182 690.102 113.364C689.011 116.545 688.466 120.167 688.466 124.227C688.466 128.288 689.011 131.909 690.102 135.091C691.223 138.273 692.875 140.788 695.057 142.636C697.269 144.455 699.996 145.364 703.239 145.364Z" fill="#30B05C"/>
<path d="M142.573 103.002C134.491 117.002 135.205 131.502 136.573 137.002C96.7746 127.891 104.296 167.252 100.569 194.127C100.258 196.372 99.4586 198.545 98.2168 200.44C66.857 248.306 -12.089 218.99 1.57328 168.002C12.7201 126.402 53.5511 123.669 72.5733 127.502C63.3734 136.702 63.5001 152.312 64.5 159.312C35.0001 145.813 28.5001 185.392 46.5 190.215C75.4268 197.966 72.5733 166.998 72.5733 150C72.5733 112 111.5 104 142.573 103.002ZM143 126.5C145.333 108 162 72.1 210 76.5C231 77.1667 273.4 89.6 275 134C275.5 160.405 258.8 208.471 188 189.5C193.6 183.9 195 165.833 195 157.5C220.6 164.359 230.333 152.358 232 145.5C234.333 138.221 234.4 122.43 216 117.5C197.6 112.57 190 127.779 188.5 136L188 163.5C182 217.5 124.614 216 102.5 206.5C110.5 198.5 110.833 179.833 110 171.5C118.633 175.167 137.32 177.2 143 156V126.5ZM63 74C76.8072 74 88 85.1929 88 99C88 112.807 76.8072 124 63 124C49.1929 124 38 112.807 38 99C38 85.1929 49.1929 74 63 74ZM128 40C144.569 40 158 53.4315 158 70C158 86.5685 144.569 100 128 100C111.432 100 98 86.5685 98 70C98 53.4315 111.432 40 128 40ZM203 0C222.33 0 238 15.67 238 35C238 54.33 222.33 70 203 70C183.67 70 168 54.33 168 35C168 15.67 183.67 1.85558e-05 203 0Z" fill="url(#paint0_linear_14_15)"/>
<defs>
<linearGradient id="paint0_linear_14_15" x1="61" y1="127.5" x2="188.177" y2="163.928" gradientUnits="userSpaceOnUse">
<stop offset="0.0425001" stop-color="#30B05C"/>
<stop offset="0.314918" stop-color="#128CD9"/>
<stop offset="0.571303" stop-color="#1243CD"/>
</linearGradient>
</defs>
</svg>
